<?xml version="1.0" encoding="UTF-8" standalone="no"?>
<!-- Generator: Adobe Illustrator 14.0.0, SVG Export Plug-In . SVG Version: 6.00 Build 43363)  -->

<svg
   xmlns:dc="http://purl.org/dc/elements/1.1/"
   xmlns:cc="http://creativecommons.org/ns#"
   xmlns:rdf="http://www.w3.org/1999/02/22-rdf-syntax-ns#"
   xmlns:svg="http://www.w3.org/2000/svg"
   xmlns="http://www.w3.org/2000/svg"
   xmlns:sodipodi="http://sodipodi.sourceforge.net/DTD/sodipodi-0.dtd"
   xmlns:inkscape="http://www.inkscape.org/namespaces/inkscape"
   version="1.1"
   id="icon-m-camera-scene-portrait-layer"
   x="0px"
   y="0px"
   width="64"
   height="64"
   viewBox="0 0 64 64"
   xml:space="preserve"
   inkscape:version="0.92.3 (2405546, 2018-03-11)"
   sodipodi:docname="owner.svg"><metadata
     id="metadata16"><rdf:RDF><cc:Work
         rdf:about=""><dc:format>image/svg+xml</dc:format><dc:type
           rdf:resource="http://purl.org/dc/dcmitype/StillImage" /><dc:title></dc:title></cc:Work></rdf:RDF></metadata><defs
     id="defs14" /><sodipodi:namedview
     pagecolor="#ffffff"
     bordercolor="#666666"
     borderopacity="1"
     objecttolerance="10"
     gridtolerance="10"
     guidetolerance="10"
     inkscape:pageopacity="0"
     inkscape:pageshadow="2"
     inkscape:window-width="1138"
     inkscape:window-height="691"
     id="namedview12"
     showgrid="false"
     inkscape:zoom="4.9166667"
     inkscape:cx="20.627118"
     inkscape:cy="39.474032"
     inkscape:window-x="619"
     inkscape:window-y="194"
     inkscape:window-maximized="0"
     inkscape:current-layer="icon-m-camera-scene-portrait-layer"
     inkscape:pagecheckerboard="true" /><g
     id="g21"
     transform="matrix(1.041034,0,0,1.041034,74.064832,15.353716)"><path
       style="fill:#ffffff;stroke-width:1.33333325"
       d="m -32.69878,4.6848126 -0.01067,-3.145333 c -3.052,-0.437333 -5.277333,-1.95199999 -6.957333,-3.409333 -0.178666,0.36 -0.378666,0.718667 -0.6,1.07066701 -0.612,0.976 -1.36,1.88266599 -2.222666,2.69333299 -2.838667,2.662666 -6.025334,2.972 -8.172,2.972 -0.606667,0 -1.194667,-0.028 -1.774667,-0.05867 -0.01733,0.238667 -0.04533,0.469333 -0.04533,0.716 0,6.8626674 6.781333,15.7293334 12.037333,15.7293334 5.254666,0 11.737333,-9.406666 11.737333,-16.2693334 0,-0.09867 -0.016,-0.188 -0.01867,-0.286667 z"
       id="path6"
       inkscape:connector-curvature="0" /><path
       style="fill:#ffffff;fill-opacity:0.50588223;stroke-width:1.33333325"
       d="m -40.772113,-14.74852 c -7.870667,0 -14.249333,6.3786667 -14.249333,14.24799961 0,0.46 0.028,0.912 0.068,1.361334 3.586666,0.0027 6.936,0.95066599 9.836,-1.769334 0.588,-0.55066601 1.144,-1.20666601 1.594666,-1.92800001 0.505334,-0.809333 0.881334,-1.697333 1.025334,-2.612 0.04933,-0.312 0.270666,-3.5759995 0.02133,-3.7079995 1.682667,0.8773333 2.805333,2.0026666 3.950666,3.1093335 1.794667,1.724 4.026667,3.872 7.605334,3.872 0.666666,0 1.344,-0.08 2.04,-0.233334 0,0.0013 0,0.004 0,0.0053 l 0.024,-0.01467 v 3.27200001 l 2.26,0.0067 c 0.044,-0.449334 0.07067,-0.901334 0.07067,-1.361334 0,-7.86933291 -6.378666,-14.24799961 -14.246666,-14.24799961 z"
       id="path8"
       inkscape:connector-curvature="0" /><path
       sodipodi:end="4.7146337"
       sodipodi:start="4.7229951"
       d="m -40.167681,15.848606 a 23.157167,14.311916 0 0 1 22.910724,14.432987 23.157167,14.311916 0 0 1 -23.305121,14.189745 23.157167,14.311916 0 0 1 -23.008156,-14.373663 23.157167,14.311916 0 0 1 23.208931,-14.249838 l -0.05198,14.311881 z"
       sodipodi:ry="14.311916"
       sodipodi:rx="23.157167"
       sodipodi:cy="30.159718"
       sodipodi:cx="-40.413284"
       id="path3769"
       style="fill:#ffffff;fill-opacity:0.50588223;stroke:none;stroke-width:0.9320122"
       sodipodi:type="arc" /><path
       style="fill:#ffffff;stroke-width:1.33333325"
       d="m -26.40678,18.728813 -14,22 -13.999999,-22 c -7,3 -11.000001,9 -11.000001,17 v 10.999999 h 50 l -0.01733,-11.090666 c 0.01733,-6.909333 -3.98267,-13.909333 -10.98267,-16.909333 z"
       id="path10"
       inkscape:connector-curvature="0" /></g></svg>