<?xml version="1.0" encoding="UTF-8" standalone="no"?>
<!-- Created with Inkscape (http://www.inkscape.org/) -->

<svg
   xmlns:dc="http://purl.org/dc/elements/1.1/"
   xmlns:cc="http://creativecommons.org/ns#"
   xmlns:rdf="http://www.w3.org/1999/02/22-rdf-syntax-ns#"
   xmlns:svg="http://www.w3.org/2000/svg"
   xmlns="http://www.w3.org/2000/svg"
   xmlns:sodipodi="http://sodipodi.sourceforge.net/DTD/sodipodi-0.dtd"
   xmlns:inkscape="http://www.inkscape.org/namespaces/inkscape"
   width="256mm"
   height="256mm"
   viewBox="0 0 256 256"
   version="1.1"
   id="svg8"
   inkscape:version="0.92.3 (2405546, 2018-03-11)"
   sodipodi:docname="transifex.svg">
  <defs
     id="defs2" />
  <sodipodi:namedview
     id="base"
     pagecolor="#ffffff"
     bordercolor="#666666"
     borderopacity="1.0"
     inkscape:pageopacity="0.0"
     inkscape:pageshadow="2"
     inkscape:zoom="0.35"
     inkscape:cx="-397.67736"
     inkscape:cy="33.688062"
     inkscape:document-units="mm"
     inkscape:current-layer="layer1"
     showgrid="false"
     inkscape:pagecheckerboard="true"
     inkscape:window-width="1920"
     inkscape:window-height="1051"
     inkscape:window-x="0"
     inkscape:window-y="0"
     inkscape:window-maximized="1" />
  <metadata
     id="metadata5">
    <rdf:RDF>
      <cc:Work
         rdf:about="">
        <dc:format>image/svg+xml</dc:format>
        <dc:type
           rdf:resource="http://purl.org/dc/dcmitype/StillImage" />
        <dc:title></dc:title>
      </cc:Work>
    </rdf:RDF>
  </metadata>
  <g
     inkscape:label="Ebene 1"
     inkscape:groupmode="layer"
     id="layer1"
     transform="translate(0,-41)">
    <g
       id="g909"
       transform="matrix(2.0160285,0,0,2.0160285,2.2116404e-6,-312.00268)">
      <path
         sodipodi:nodetypes="ccscsscscscsscsccscscccccscscscccc"
         style="fill:#ffffff;fill-opacity:0.50588223;stroke-width:0.26458332"
         d="m 51.744487,296.59625 c -0.72855,-0.39531 -1.16933,-1.40172 -1.0253,-2.34095 0.0427,-0.27839 4.82876,-7.56817 10.6357,-16.19952 17.952484,-26.68428 17.513124,-25.99989 17.347314,-27.02164 -0.14113,-0.86968 -1.50643,-2.96126 -16.188294,-24.79977 -11.12478,-16.54753 -10.44206,-15.46684 -10.44206,-16.52903 0,-0.67551 0.18746,-1.14962 0.61237,-1.5488 0.6024,-0.56593 0.75017,-0.57529 9.082,-0.57529 8.445324,0 8.471214,0.002 9.015134,0.59531 0.30002,0.32743 2.74313,4.16718 5.42913,8.53281 10.660828,17.3273 10.500438,17.0837 11.532148,17.51478 1.27437,0.53246 2.70898,0.11114 3.585482,-1.05301 0.35255,-0.46825 3.935959,-6.20917 7.963139,-12.75761 4.02717,-6.54843 7.56504,-12.1146 7.86193,-12.36926 0.48931,-0.41972 1.31813,-0.46302 8.86225,-0.46302 4.92269,0 8.52015,0.1058 8.8064,0.259 0.60865,0.32574 1.07695,1.62841 0.87534,2.43493 -0.0843,0.33734 -4.14706,6.56648 -9.0283,13.84252 -18.66555,27.82312 -17.50135,26.01233 -17.49958,27.21884 10e-4,0.93641 0.3441,1.59932 2.41107,4.66345 5.3314,7.90341 17.07714,25.37797 21.09747,31.38748 4.59003,6.86107 4.86473,7.50786 3.76561,8.86602 l -0.50548,0.62462 -8.14395,0.0773 c -5.69301,0.0541 -8.36476,-0.0141 -8.87766,-0.22658 -0.53147,-0.22014 -1.52956,-1.55424 -3.6209,-4.83984 -10.41903,-16.36883 -13.654909,-21.30505 -14.464179,-22.06456 -0.728382,-0.6836 -1.140392,-0.8599 -2.009582,-0.8599 -1.41033,0 -2.34249,0.94319 -4.84889,4.90624 -1.67794,2.65312 -11.146808,17.47206 -13.483438,21.10181 -0.54316,0.84375 -1.28565,1.64742 -1.64997,1.78594 -0.367714,0.1398 -4.156504,0.24713 -8.516534,0.24125 -6.43049,-0.009 -7.98541,-0.0818 -8.57837,-0.40356 z"
         id="path77"
         inkscape:connector-curvature="0" />
      <path
         inkscape:connector-curvature="0"
         id="path100"
         d="m 32.27916,296.74996 c -5.16017,-0.59944 -9.91535,-3.08119 -13.04649,-6.80901 -1.52598,-1.81677 -3.1053,-4.97168 -3.93718,-7.86503 l -0.60857,-2.11667 -0.13357,-27.84246 -0.13356,-27.84245 -0.86432,-0.86484 -0.86432,-0.86483 -5.9706401,-0.13229 C 1.2003099,222.29007 0.72159,222.24134 0.37494,221.7665 0.07636,221.35751 0,219.97381 0,214.97268 v -6.28023 l 0.69714,-0.54837 c 0.65357,-0.5141 1.0347199,-0.54837 6.0985499,-0.54837 4.3855601,0 5.5521501,-0.0779 6.2028701,-0.41445 1.52344,-0.7878 1.55352,-1.05826 1.55352,-13.96753 0,-11.17785 0.0248,-11.78374 0.50579,-12.37777 l 0.50579,-0.62462 c 0,0 5.03745,-0.074 7.55455,0 2.67914,0.0787 7.59564,0.0411 8.02702,0.47215 0.43626,0.43596 0.48261,1.42633 0.60476,12.92043 l 0.1323,12.44827 0.86407,0.77176 0.86407,0.77176 h 5.03493 c 4.99296,0 5.04035,0.005 5.68437,0.64943 l 0.64943,0.64943 v 6.18362 c 0,7.98739 0.53878,7.33419 -6.04946,7.33419 -5.34281,0 -6.04761,0.16573 -6.78723,1.59601 -0.36381,0.70352 -0.40141,3.64499 -0.33226,25.99083 0.0871,28.1554 -0.0321,26.41219 1.96695,28.74768 1.60556,1.87574 2.59229,2.22292 6.7922,2.38982 3.21973,0.12795 3.70509,0.20723 4.0349,0.65904 0.30012,0.41114 0.3749,1.8517 0.3749,7.22192 v 6.70833 l -0.64943,0.64943 c -0.64527,0.64527 -0.68044,0.64919 -5.49011,0.61187 -2.66237,-0.0207 -5.61457,-0.12747 -6.56046,-0.23735 z"
         style="fill:#ffffff;stroke-width:0.26458332"
         sodipodi:nodetypes="scccccccscsccscsscacscccsccsscscscscscs" />
    </g>
  </g>
</svg>
